<?xml version="1.0" standalone="no"?>
<!DOCTYPE svg PUBLIC "-//W3C//DTD SVG 20010904//EN"
 "http://www.w3.org/TR/2001/REC-SVG-20010904/DTD/svg10.dtd">
<svg version="1.0" xmlns="http://www.w3.org/2000/svg"
 width="454.000000pt" height="454.000000pt" viewBox="0 0 454.000000 454.000000"
 preserveAspectRatio="xMidYMid meet">
<metadata>
Created by potrace 1.11, written by Peter Selinger 2001-2013
</metadata>
<g transform="translate(0.000000,454.000000) scale(0.100000,-0.100000)"
fill="#000000" stroke="none">
<path d="M765 3626 c-103 -25 -171 -50 -235 -84 -217 -118 -353 -305 -404
-555 -16 -77 -23 -282 -11 -342 40 -205 117 -326 279 -437 79 -54 146 -84 376
-163 304 -105 366 -138 417 -218 22 -34 26 -54 26 -107 1 -164 -141 -265 -354
-253 -166 9 -308 68 -493 206 -43 32 -79 57 -80 55 0 -2 -9 -19 -20 -38 -10
-19 -44 -84 -76 -145 -32 -60 -88 -166 -124 -235 -36 -68 -66 -126 -66 -127 0
-7 141 -92 215 -130 69 -35 195 -86 245 -99 8 -2 49 -12 90 -23 41 -11 100
-23 130 -27 30 -3 66 -8 80 -10 37 -6 291 -5 320 0 14 3 45 7 70 10 77 10 102
16 192 46 151 51 251 109 350 207 166 161 242 364 240 638 -3 275 -104 469
-321 614 -103 69 -214 116 -426 183 -283 89 -365 150 -365 272 0 97 92 190
211 211 43 8 164 9 177 1 5 -3 23 -8 41 -11 56 -10 146 -51 223 -101 40 -27
76 -50 80 -52 3 -2 46 75 94 170 48 95 107 211 131 258 23 46 43 89 43 96 0
26 -286 136 -451 172 -150 34 -155 34 -339 37 -152 2 -187 0 -265 -19z"/>
<path d="M2357 2281 c1 -713 2 -1302 2 -1308 1 -10 76 -13 341 -13 l340 0 0
502 0 502 125 -195 c68 -107 128 -198 133 -204 4 -5 11 -17 15 -25 4 -8 38
-62 76 -120 38 -58 121 -185 183 -282 l113 -178 423 0 c232 0 422 2 422 5 0 3
-134 180 -297 393 -163 213 -321 419 -351 457 -29 39 -65 85 -80 104 -71 90
-84 111 -70 115 159 47 265 105 358 197 278 277 253 859 -49 1137 -91 83 -250
161 -386 188 -11 2 -31 7 -45 10 -14 4 -302 8 -640 9 l-615 2 2 -1296z m943
758 c112 -18 209 -80 250 -159 19 -39 31 -95 32 -157 0 -48 -22 -143 -34 -143
-4 0 -8 -6 -8 -13 0 -23 -73 -85 -131 -111 -73 -34 -127 -43 -259 -45 l-110
-2 0 320 0 320 38 3 c54 4 148 -1 222 -13z"/>
</g>
</svg>
