<svg class="svg-icon" id="Layer_1" data-name="Layer 1" 
    xmlns="http://www.w3.org/2000/svg" viewBox="0 0 98.9 13.12">
    <path fill="#333333" d="M7.4,3.52a3.87,3.87,0,0,0-2.1-.8c-.6,0-1.4.3-1.4,1s.9,1,1.4,1.2l.8.2c1.7.5,3,1.4,3,3.4a4.1,4.1,0,0,1-1.3,3.3A5.71,5.71,0,0,1,4.3,13,7.14,7.14,0,0,1,0,11.62L1.4,9a4.55,4.55,0,0,0,2.8,1.3c.8,0,1.6-.4,1.6-1.2s-1.3-1.2-1.9-1.4c-2-.6-3.3-1.1-3.3-3.5A4,4,0,0,1,4.9.12a9,9,0,0,1,3.9,1Zm6,2.88A3.59,3.59,0,0,0,17,10.1a3.59,3.59,0,0,0,3.5-3.7A3.51,3.51,0,0,0,17,3.1a3.44,3.44,0,0,0-3.5,3.3m10.3-.1A6.57,6.57,0,0,1,17,13.1a6.57,6.57,0,0,1-6.8-6.8c0-3.7,3.3-6.3,6.8-6.3s6.8,2.6,6.8,6.3M28.5,10h3.8v2.7h-7V.42h3.2Zm4.8,2.7h3.2V.42H33.3ZM41.9,10h.7a3.2,3.2,0,0,0,3.5-3.5A3.31,3.31,0,0,0,42.6,3h-.8l.1,7ZM38.7.42h4.5a6.25,6.25,0,0,1,6.3,6.2,6.19,6.19,0,0,1-6.3,6.2H38.7V.42Zm15.5,5.5h.3c1,0,2.2-.2,2.2-1.5s-1.2-1.5-2.2-1.5h-.3Zm7,6.8h-4L54.2,8h0v4.7H51V.42h4.8c2.4,0,4.3,1.2,4.3,3.8a3.37,3.37,0,0,1-2.7,3.5C57.3,7.72,61.2,12.72,61.2,12.72Zm3.6-6.4a3.51,3.51,0,1,0,7,0A3.51,3.51,0,0,0,68.3,3a3.58,3.58,0,0,0-3.5,3.3m10.3,0a6.8,6.8,0,1,1-13.6,0c0-3.7,3.3-6.3,6.8-6.3s6.8,2.6,6.8,6.3m10.3-1.8a3.5,3.5,0,0,0-2.8-1.4,3.23,3.23,0,0,0-3.3,3.4,3.23,3.23,0,0,0,3.3,3.4,3.89,3.89,0,0,0,2.8-1.3v3.8a10.07,10.07,0,0,1-2.8.6,7,7,0,0,1-4.6-1.8,5.86,5.86,0,0,1-2-4.7A6.27,6.27,0,0,1,77.8,2a6.93,6.93,0,0,1,4.7-2,7.17,7.17,0,0,1,2.9.6ZM94.5.42h4l-4.9,5.8,5.3,6.5H94.7l-4.1-5.3h0v5.3H87.4V.42h3.2v5.1h0Z"></path>
</svg>